<svg id="Layer_1" data-name="Layer 1" xmlns="http://www.w3.org/2000/svg" viewBox="0 0 292.35 57.58"><defs><style>.cls-1{fill:#010101;}</style></defs><path class="cls-1" d="M29.92,12.46c0,.18,0,.26-.13.26a4.56,4.56,0,0,0-2.49.64,5.21,5.21,0,0,0-1.75,2.41l-9.71,24q0,.18-.48.18a.57.57,0,0,1-.49-.18L4,15.86a6.37,6.37,0,0,0-1.61-2.43,3.41,3.41,0,0,0-2.23-.71c-.09,0-.13-.08-.13-.26s0-.27.13-.27l1.9.05c.82.06,1.44.09,1.85.09.86,0,1.87,0,3.05-.09l1.9-.05c.09,0,.13.09.13.27s0,.26-.13.26A5.36,5.36,0,0,0,6.77,13a1.09,1.09,0,0,0-.68,1.06,3.09,3.09,0,0,0,.4,1.33l9.62,21.22L24.63,15.5a3.57,3.57,0,0,0,.31-1.28,1.19,1.19,0,0,0-.82-1.14,7.12,7.12,0,0,0-2.67-.36c-.09,0-.13-.08-.13-.26s0-.27.13-.27l1.77.05q1.5.09,2.64.09c.62,0,1.31,0,2.08-.09l1.85-.05C29.88,12.19,29.92,12.28,29.92,12.46Z"/><path class="cls-1" d="M56.85,39.51q0,.27-.18.27c-.53,0-1.38,0-2.56-.09s-1.94-.09-2.47-.09-1.43,0-2.43.09-1.65.09-2.12.09c-.12,0-.17-.09-.17-.27s0-.26.17-.26a7.4,7.4,0,0,0,2.61-.33,1.15,1.15,0,0,0,.79-1.13A4.75,4.75,0,0,0,50,36.07l-4.15-9H35.35l-3,7.24a6.86,6.86,0,0,0-.62,2.47,2,2,0,0,0,1.06,1.85,7.15,7.15,0,0,0,3.31.58c.15,0,.22.09.22.26s-.07.27-.22.27c-.53,0-1.29,0-2.29-.09s-2.09-.09-2.92-.09-1.6,0-2.6.09-1.6.09-2.16.09c-.15,0-.22-.09-.22-.27s.07-.26.22-.26a4.58,4.58,0,0,0,2.09-.44,4.71,4.71,0,0,0,1.64-1.59A20.34,20.34,0,0,0,31.51,34l9.23-22.2a.31.31,0,0,1,.28-.13c.14,0,.22,0,.25.13l10.24,22a23,23,0,0,0,1.81,3.42,5.5,5.5,0,0,0,1.56,1.64,3.5,3.5,0,0,0,1.79.46C56.79,39.25,56.85,39.34,56.85,39.51ZM35.71,26.32h9.75L40.3,15.24Z"/><path class="cls-1" d="M63.78,20.58a7.75,7.75,0,0,0,2,2.14c.81.57,1.93,1.29,3.37,2.14s2.72,1.67,3.56,2.27a8.43,8.43,0,0,1,2.16,2.32,6.18,6.18,0,0,1,.9,3.4,7,7,0,0,1-4,6.47,11.08,11.08,0,0,1-4.93,1A12.65,12.65,0,0,1,63.93,40a14.37,14.37,0,0,1-3.07-1.17.59.59,0,0,1-.28-.31,1.86,1.86,0,0,1-.11-.53l-.67-5.74v0c0-.12.08-.19.22-.2a.22.22,0,0,1,.27.15,10.28,10.28,0,0,0,2.34,5.3,6.44,6.44,0,0,0,5.21,2.25,6.2,6.2,0,0,0,4-1.28,4.83,4.83,0,0,0,1.61-4A6.4,6.4,0,0,0,72.51,31a8.46,8.46,0,0,0-2.14-2.38A40.62,40.62,0,0,0,67,26.36a32.67,32.67,0,0,1-3.33-2.16,8.43,8.43,0,0,1-2.07-2.32,6.16,6.16,0,0,1-.86-3.33,6.19,6.19,0,0,1,1.12-3.75,7,7,0,0,1,2.94-2.32,9.84,9.84,0,0,1,3.88-.77,13.21,13.21,0,0,1,5,1.06q.66.25.66.75l.4,4.68c0,.11-.08.17-.24.17s-.26-.06-.29-.17a7.05,7.05,0,0,0-1.72-4.11,5.5,5.5,0,0,0-4.41-1.81,4.69,4.69,0,0,0-3.89,1.55,5.75,5.75,0,0,0-1.23,3.7A5.43,5.43,0,0,0,63.78,20.58Z"/><path class="cls-1" d="M101.65,38.79a2.33,2.33,0,0,0,1.52.9,17.06,17.06,0,0,0,3.6.27c.09,0,.13.08.13.26s0,.26-.13.26c-1.21,0-2.15,0-2.83,0l-3.84,0-2.91,0c-.53,0-1.27,0-2.21,0-.06,0-.08-.08-.08-.26s0-.26.08-.26a10.32,10.32,0,0,0,2.54-.23,1.52,1.52,0,0,0,1.1-.86,4.86,4.86,0,0,0,.29-2V16.48a4.77,4.77,0,0,0-.29-2,1.62,1.62,0,0,0-1.1-.86A9.75,9.75,0,0,0,95,13.43c-.06,0-.08-.09-.08-.26s0-.27.08-.27l2.17,0Q99,13,100.06,13c.71,0,1.51,0,2.43-.13,2.29-.09,3.54-.13,3.75-.13a10.32,10.32,0,0,1,6.31,1.79A6.31,6.31,0,0,1,115,20a8.23,8.23,0,0,1-1.46,5,8.85,8.85,0,0,1-3.69,3,11.35,11.35,0,0,1-4.61,1,8.59,8.59,0,0,1-2.16-.22c-.09,0-.13-.07-.13-.22a.58.58,0,0,1,.06-.26c.05-.09.1-.12.16-.09a7,7,0,0,0,1.59.17,7.86,7.86,0,0,0,5.32-1.89,7,7,0,0,0,2.18-5.52,8.29,8.29,0,0,0-.93-4,6.4,6.4,0,0,0-2.53-2.6,7.09,7.09,0,0,0-3.56-.91,12.51,12.51,0,0,0-2.56.18,1.56,1.56,0,0,0-1.08.81,5.32,5.32,0,0,0-.33,2.23V36.73A4,4,0,0,0,101.65,38.79Z"/><path class="cls-1" d="M125.64,38.8a1.58,1.58,0,0,0,1.08.84,10.4,10.4,0,0,0,2.56.22c.05,0,.08.09.08.26s0,.27-.08.27c-.89,0-1.58,0-2.08,0l-3.09,0-3,0c-.53,0-1.26,0-2.17,0-.09,0-.13-.09-.13-.27s0-.26.13-.26a10.43,10.43,0,0,0,2.54-.22,1.69,1.69,0,0,0,1.13-.86,4.88,4.88,0,0,0,.3-2V16.38a4.69,4.69,0,0,0-.3-1.94,1.75,1.75,0,0,0-1.13-.86,9.66,9.66,0,0,0-2.54-.25c-.09,0-.13-.08-.13-.26s0-.27.13-.27l2.17,0c1.23.06,2.22.09,3,.09s1.86,0,3.09-.09l2.08,0c.05,0,.08.09.08.27s0,.26-.08.26a8.72,8.72,0,0,0-2.54.27,1.7,1.7,0,0,0-1.1.9,4.91,4.91,0,0,0-.29,2V36.81A4.86,4.86,0,0,0,125.64,38.8Z"/><path class="cls-1" d="M154.17,12.83a17.47,17.47,0,0,1,3.93,1.48,1.48,1.48,0,0,1,.33.29,2.39,2.39,0,0,1,.11.68l.53,5c0,.09-.08.14-.25.16s-.25,0-.28-.11a10.27,10.27,0,0,0-3.22-5.5A9.12,9.12,0,0,0,149.4,13a13.79,13.79,0,0,0-6.82,1.64A11.18,11.18,0,0,0,138,19.32a14.69,14.69,0,0,0-1.61,7,14.32,14.32,0,0,0,1.78,7A14,14,0,0,0,143,38.52a11.86,11.86,0,0,0,6.47,1.92q7.32,0,9.36-7.19c0-.06.07-.09.22-.09s.31,0,.31.13L159,38a1.76,1.76,0,0,1-.13.66,1.41,1.41,0,0,1-.35.31,18.74,18.74,0,0,1-4.31,1.66,22.06,22.06,0,0,1-4.78.46,17.79,17.79,0,0,1-8.19-1.83,13.66,13.66,0,0,1-5.63-5.17,14.43,14.43,0,0,1-2-7.65,13.13,13.13,0,0,1,7.66-12.25,18.46,18.46,0,0,1,8.14-1.75A22.27,22.27,0,0,1,154.17,12.83Z"/><path class="cls-1" d="M165.64,15c-.85.89-1.42,2.46-1.72,4.73,0,.06-.09.09-.26.09s-.27,0-.27-.09c.12-.8.25-2.07.4-3.82s.22-3.07.22-4c0-.15.09-.22.26-.22s.27.07.27.22c0,.65.78,1,2.34,1q3.8.13,8.87.13c1.74,0,3.57,0,5.52-.09l3,0a8.89,8.89,0,0,0,2.34-.22,1.35,1.35,0,0,0,1-.88.23.23,0,0,1,.26-.18c.15,0,.22.06.22.18-.09.82-.17,2.08-.26,3.77s-.13,3.07-.13,4.13q0,.09-.27.09c-.18,0-.26,0-.26-.09a10.67,10.67,0,0,0-.49-3.62A3.3,3.3,0,0,0,185,14.22a7.4,7.4,0,0,0-3.22-.57,23.47,23.47,0,0,0-3.23.15,1.69,1.69,0,0,0-1.25.73,4.43,4.43,0,0,0-.33,2V36.91a4.9,4.9,0,0,0,.3,2,1.71,1.71,0,0,0,1.24.83,13.49,13.49,0,0,0,2.91.23c.06,0,.09.08.09.26s0,.26-.09.26c-1,0-1.73,0-2.29,0l-3.4,0-3.22,0c-.59,0-1.4,0-2.43,0-.06,0-.09-.08-.09-.26s0-.26.09-.26a13.42,13.42,0,0,0,2.91-.23,1.75,1.75,0,0,0,1.26-.86,4.44,4.44,0,0,0,.33-2V16.48a4.08,4.08,0,0,0-.35-2,1.71,1.71,0,0,0-1.26-.69,26.62,26.62,0,0,0-3.29-.13A5.46,5.46,0,0,0,165.64,15Z"/><path class="cls-1" d="M214,14.42a3.67,3.67,0,0,0-2.84-1c-.09,0-.14-.09-.14-.26s.05-.27.14-.27l1.85,0q1.5.09,2.43.09c.53,0,1.23,0,2.11-.09l1.81,0q.09,0,.09.27c0,.17,0,.26-.09.26a3.26,3.26,0,0,0-2.64,1,4.76,4.76,0,0,0-.84,3.11V30.16q0,5.16-2.78,8a10,10,0,0,1-7.51,2.87,12,12,0,0,1-5.69-1.3,9.13,9.13,0,0,1-3.75-3.69,11.21,11.21,0,0,1-1.32-5.52V16.48a5,5,0,0,0-.29-2,1.64,1.64,0,0,0-1.11-.86,9.72,9.72,0,0,0-2.53-.24c-.06,0-.09-.09-.09-.26s0-.27.09-.27l2.12,0c1.23.06,2.22.09,3,.09s1.81,0,3-.09l2,0c.09,0,.13.09.13.27s0,.26-.13.26a9,9,0,0,0-2.52.26,1.69,1.69,0,0,0-1.08.91,5.08,5.08,0,0,0-.29,2V29q0,5.16,2.43,8a8.55,8.55,0,0,0,6.8,2.8,8,8,0,0,0,6.27-2.54,10.25,10.25,0,0,0,2.25-7V17.53A4.53,4.53,0,0,0,214,14.42Z"/><path class="cls-1" d="M250.38,40.22c0,.18,0,.26-.13.26h-5.12c-.74,0-2.16-1.22-4.26-3.68a119.24,119.24,0,0,1-7.53-10.13,14,14,0,0,1-2.78.31c-.11,0-.75,0-1.89-.13V36.91a5.15,5.15,0,0,0,.28,2,1.54,1.54,0,0,0,1.08.83,10.34,10.34,0,0,0,2.56.23c.09,0,.14.08.14.26s0,.26-.14.26c-.88,0-1.58,0-2.11,0l-3,0-2.91,0c-.53,0-1.26,0-2.21,0,0,0-.08-.08-.08-.26s0-.26.08-.26a10.68,10.68,0,0,0,2.59-.23,1.6,1.6,0,0,0,1.12-.86,4.64,4.64,0,0,0,.31-2V16.48a4.77,4.77,0,0,0-.29-2,1.65,1.65,0,0,0-1.1-.86,9.75,9.75,0,0,0-2.54-.24c-.09,0-.13-.09-.13-.26s0-.27.13-.27l2.12,0q1.77.09,2.91.09c.65,0,1.26,0,1.84,0l1.47-.09c1.06-.09,2-.13,2.83-.13a7.49,7.49,0,0,1,5.14,1.61,5.39,5.39,0,0,1,1.83,4.26,7,7,0,0,1-1.41,4.26,9.69,9.69,0,0,1-3.75,3q3.79,5.38,6.35,8.39a23.86,23.86,0,0,0,4.55,4.32A7.07,7.07,0,0,0,250.25,40C250.34,40,250.38,40,250.38,40.22ZM231.31,26c2.45,0,4.19-.5,5.23-1.52a6.13,6.13,0,0,0,1.57-4.61c0-2.27-.55-3.91-1.65-4.94a6.78,6.78,0,0,0-4.79-1.55,3.44,3.44,0,0,0-2.34.62,3.65,3.65,0,0,0-.66,2.6v9.27A24.3,24.3,0,0,0,231.31,26Z"/><path class="cls-1" d="M270.86,33.93c.18,0,.26.07.26.16a41.14,41.14,0,0,0-.39,5.73.71.71,0,0,1-.16.51.77.77,0,0,1-.55.15H251.79c-.06,0-.09-.08-.09-.26s0-.26.09-.26a10.32,10.32,0,0,0,2.54-.23,1.54,1.54,0,0,0,1.1-.86,5,5,0,0,0,.29-2V16.48a5,5,0,0,0-.29-2,1.65,1.65,0,0,0-1.1-.86,9.75,9.75,0,0,0-2.54-.24c-.06,0-.09-.09-.09-.26s0-.27.09-.27h17.48a.35.35,0,0,1,.4.4l.09,5.34c0,.09-.09.13-.25.13s-.24,0-.24-.13a5.19,5.19,0,0,0-1.19-3.58,4,4,0,0,0-3.14-1.32h-3a9.89,9.89,0,0,0-2.47.22,1.58,1.58,0,0,0-1.08.84,4.72,4.72,0,0,0-.29,1.94v9h5.83a4.44,4.44,0,0,0,2.82-.68,3,3,0,0,0,.79-2.37s.09-.08.27-.08.26,0,.26.08l0,3.49c0,.85,0,1.49,0,1.9l.05,2.07q0,.09-.27.09c-.17,0-.26,0-.26-.09a3.74,3.74,0,0,0-.84-2.78,4.29,4.29,0,0,0-3-.79h-5.69V36.73a4.43,4.43,0,0,0,.29,1.88,1.57,1.57,0,0,0,1.06.82,10.3,10.3,0,0,0,2.49.22H266a3.78,3.78,0,0,0,3-1.55A8,8,0,0,0,270.59,34C270.59,34,270.68,33.92,270.86,33.93Z"/><path class="cls-1" d="M280.3,21.29a8.07,8.07,0,0,0,2.06,2.14c.8.57,1.93,1.28,3.37,2.14s2.72,1.67,3.55,2.27a8.48,8.48,0,0,1,2.17,2.32,6.18,6.18,0,0,1,.9,3.4,7.27,7.27,0,0,1-1,3.77,7.07,7.07,0,0,1-3,2.69,11.06,11.06,0,0,1-4.92,1,12.59,12.59,0,0,1-2.93-.33,14.37,14.37,0,0,1-3.07-1.17.61.61,0,0,1-.29-.31,2.65,2.65,0,0,1-.11-.52l-.66-5.74v0c0-.11.07-.18.22-.2s.24,0,.27.16a10.32,10.32,0,0,0,2.34,5.3,6.44,6.44,0,0,0,5.2,2.25,6.16,6.16,0,0,0,3.95-1.28,4.81,4.81,0,0,0,1.61-4,6.4,6.4,0,0,0-.88-3.42,8.47,8.47,0,0,0-2.14-2.38,36.16,36.16,0,0,0-3.42-2.23,34.29,34.29,0,0,1-3.33-2.17,8.58,8.58,0,0,1-2.08-2.31,6.25,6.25,0,0,1-.86-3.33,6.21,6.21,0,0,1,1.13-3.76,6.88,6.88,0,0,1,2.93-2.31,9.76,9.76,0,0,1,3.89-.78,13.45,13.45,0,0,1,5,1.06q.66.27.66.75l.4,4.68q0,.18-.24.18c-.17,0-.26-.06-.29-.18A7,7,0,0,0,289,14.8,5.48,5.48,0,0,0,284.58,13a4.67,4.67,0,0,0-3.88,1.54,5.79,5.79,0,0,0-1.24,3.71A5.45,5.45,0,0,0,280.3,21.29Z"/><polygon class="cls-1" points="106.69 18.93 106.57 18.16 107.2 17.9 107.81 17.48 107.74 16.83 108.36 16.13 108.44 15.44 108.24 14.3 109.3 13.7 109.37 12.42 110.35 11.61 111 11.17 111.09 10.12 110.91 9.25 111.71 8.89 112.49 8.37 112.24 7.82 112.02 6.89 112.88 6.55 113.87 5.64 113.65 5 114.17 4.74 114.19 3.92 114.7 3.52 114.74 2.82 115.22 2.53 115.29 1.72 115.83 1.23 115.72 0.85 116.25 0.49 116.15 0 146.9 15.36 168.64 26.22 167.76 26.59 167.92 27.66 167.06 28.2 167.28 28.95 166.45 29.73 166.33 30.84 166.83 31.41 165.08 32.66 165.36 33.77 164.28 34.95 162.96 35.22 163.13 37.25 162.28 37.88 162.34 38.83 161.46 39.24 161.5 40.52 160.5 41.27 160.57 42.71 159.42 42.92 159.13 43.95 159.19 45.15 106.69 18.93"/><polygon class="cls-1" points="196 22.33 197.06 22.09 197.16 21.18 198.31 20.93 198.83 19.51 200.34 18.72 200.72 17.62 202.09 17.29 201.9 15.28 203.49 14.85 203.05 14.19 205.54 13.48 205.8 11.88 207.16 11.68 207.93 10.41 209.35 10.55 209.4 8.94 210.26 8.07 210.97 7.37 245.59 42.61 243.82 43.37 243.38 44.83 242.06 45.09 242.11 46.1 240.38 46.67 240.16 48.05 238.63 48.66 238.36 49.85 237.06 49.78 237.14 51.07 236.27 51.25 236.16 52.05 234.75 52.34 234.94 53.27 234.21 53.34 234.09 54.49 233.33 55.21 232.6 54.77 232.56 55.64 231.61 55.79 231.47 56.74 230.86 56.63 230.63 57.58 196 22.33"/><polygon class="cls-1" points="55.13 5.47 55.24 6.04 55.63 6.01 55.59 6.64 56.24 6.67 56.74 7.22 56.91 8.04 57.71 8.26 57.95 9.13 58.93 9.58 59.21 10.44 60.34 10.85 60.5 12.21 61.99 12.07 62.23 13.15 63.57 13.85 63.84 14.89 64.9 15.38 65.45 16.64 66.54 17.22 66.86 18.17 67.63 18.42 68.01 19.41 69.17 19.59 69.49 21.02 36.32 53.17 36.18 52.21 35.25 52.02 35.02 51.06 34.33 51.02 34.21 50.39 33.49 50.12 33.26 49.44 32.48 49.02 32.26 48.4 31.6 48.06 31.4 47.44 30.18 46.97 29.51 45.81 28.9 44.53 27.85 44.01 26.35 43.44 26.57 42.62 26.46 41.99 25.62 41.59 24.85 41.16 24.63 40.52 24.41 40 23.63 39.8 23.47 39.27 22.84 38.98 22.72 38.46 22.14 38.2 21.95 37.63 55.13 5.47"/></svg>