<svg id="Layer_1" data-name="Layer 1" xmlns="http://www.w3.org/2000/svg" viewBox="0 0 132.72 65.27"><defs><style>.cls-1{fill:#221f1f;}.cls-2{fill:#010101;}</style></defs><path class="cls-1" d="M76.66,62.79H75.37l0,2.28a.08.08,0,0,1-.08.08h-.69a.07.07,0,0,1-.08-.08l0-3.09,0-2.93a.07.07,0,0,1,.08-.08h2c1.36,0,2.2.63,2.2,1.88S78,62.79,76.66,62.79ZM75.36,62v.13H76.7c.8,0,1.34-.36,1.34-1.27s-.5-1.25-1.37-1.25H75.38Z"/><path class="cls-1" d="M82.6,65.15a.08.08,0,0,1-.08-.08l0-3.06,0-3A.08.08,0,0,1,82.6,59h.68a.08.08,0,0,1,.08.08l0,3,0,3.06a.08.08,0,0,1-.08.08Z"/><path class="cls-1" d="M90,65.27c-1.82,0-2.88-1.22-2.88-3.22s1.1-3.2,2.88-3.2A2.41,2.41,0,0,1,92.55,61a.07.07,0,0,1-.07.08h-.65a.12.12,0,0,1-.1-.08A1.66,1.66,0,0,0,90,59.53c-1.3,0-2,1-2,2.52s.77,2.54,2,2.54A1.7,1.7,0,0,0,91.77,63a.09.09,0,0,1,.09-.08h.67a.07.07,0,0,1,.07.08A2.45,2.45,0,0,1,90,65.27Z"/><path class="cls-1" d="M97.57,65.15a.08.08,0,0,1-.08-.08l0-3,0-2.46H95.78a.08.08,0,0,1-.07-.08v-.5a.07.07,0,0,1,.07-.08h4.27a.07.07,0,0,1,.08.08v.5a.08.08,0,0,1-.08.08h-1.7l0,2.46,0,3a.08.08,0,0,1-.08.08Z"/><path class="cls-1" d="M105.91,65.27a2.14,2.14,0,0,1-2.3-2.46V60.88l0-1.83a.08.08,0,0,1,.08-.08h.7a.08.08,0,0,1,.08.08l0,1.82v1.94c0,1,.43,1.76,1.48,1.76s1.51-.71,1.51-1.76V60.88l0-1.83a.08.08,0,0,1,.08-.08h.64a.08.08,0,0,1,.08.08l0,1.83v1.93C108.18,64.36,107.44,65.27,105.91,65.27Z"/><path class="cls-1" d="M115.06,64.08l-1-1.46h-1.32l0,2.45a.07.07,0,0,1-.08.08H112a.07.07,0,0,1-.07-.08l0-3.1,0-2.92A.07.07,0,0,1,112,59h2.17c1.41,0,2.27.61,2.27,1.82a1.68,1.68,0,0,1-1.5,1.76l1.61,2.53s0,.07,0,.07h-.79a.17.17,0,0,1-.13-.07Zm-.77-4.46h-1.48l0,2.36h1.52c.82,0,1.38-.35,1.38-1.18S115.16,59.62,114.29,59.62Z"/><path class="cls-1" d="M120.29,65.15a.07.07,0,0,1-.07-.08l0-3.11,0-2.91a.07.07,0,0,1,.07-.08H124a.07.07,0,0,1,.08.08v.5a.08.08,0,0,1-.08.08h-3l0,1.89h2.79a.08.08,0,0,1,.08.08v.5a.08.08,0,0,1-.08.08H121l0,2.31h3a.07.07,0,0,1,.08.08v.5a.07.07,0,0,1-.08.08Z"/><path class="cls-1" d="M130.21,65.26c-1.57,0-2.5-.75-2.56-2.16a.09.09,0,0,1,.08-.08h.69a.11.11,0,0,1,.09.08c.08.93.52,1.49,1.73,1.49.91,0,1.56-.33,1.56-1.14,0-1.71-4-.46-4-2.82,0-1.13.9-1.77,2.27-1.77s2.28.59,2.41,1.86a.06.06,0,0,1-.06.08h-.7a.09.09,0,0,1-.09-.08c-.07-.79-.59-1.19-1.59-1.19s-1.44.32-1.44,1c0,1.59,4,.37,4,2.79C132.61,64.61,131.62,65.26,130.21,65.26Z"/><path class="cls-2" d="M52.38.46c0,.31-.08.47-.23.47a7.88,7.88,0,0,0-4.37,1.12,9,9,0,0,0-3.05,4.21l-17,42c-.05.2-.33.31-.85.31a1,1,0,0,1-.85-.31L7,6.41A11.22,11.22,0,0,0,4.13,2.16,6,6,0,0,0,.23.93C.08.93,0,.77,0,.46S.08,0,.23,0L3.55.08C5,.18,6.08.23,6.8.23c1.49,0,3.27-.05,5.33-.15L15.45,0c.16,0,.23.15.23.46s-.07.47-.23.47a9.13,9.13,0,0,0-3.59.54,1.89,1.89,0,0,0-1.2,1.85,5.4,5.4,0,0,0,.7,2.32L28.2,42.8l14.91-37a6.06,6.06,0,0,0,.54-2.24,2.08,2.08,0,0,0-1.43-2A12.57,12.57,0,0,0,37.54.93c-.15,0-.23-.16-.23-.47s.08-.46.23-.46l3.1.08c1.75.1,3.29.15,4.63.15q1.62,0,3.63-.15L52.15,0C52.3,0,52.38.15,52.38.46Z"/><path class="cls-2" d="M99.5,47.82c0,.31-.1.46-.31.46-.92,0-2.42-.05-4.48-.15S91.31,48,90.39,48c-1.08,0-2.5.06-4.25.16s-2.89.15-3.71.15c-.21,0-.31-.15-.31-.46s.1-.46.31-.46A13.05,13.05,0,0,0,87,46.78a2,2,0,0,0,1.39-2,8.37,8.37,0,0,0-.85-3L80.27,26.11H61.88L56.63,38.78a12,12,0,0,0-1.08,4.33,3.41,3.41,0,0,0,1.85,3.24,12.69,12.69,0,0,0,5.79,1c.26,0,.39.15.39.46s-.13.46-.39.46c-.92,0-2.26-.05-4-.15-2-.1-3.66-.16-5.1-.16-1.29,0-2.81.06-4.56.16-1.55.1-2.81.15-3.79.15-.25,0-.38-.15-.38-.46s.13-.46.38-.46a7.87,7.87,0,0,0,3.67-.78,8,8,0,0,0,2.86-2.78,34.08,34.08,0,0,0,2.9-5.71L71.34.23A.58.58,0,0,1,71.85,0c.23,0,.37.08.42.23L90.16,37.7a42,42,0,0,0,3.16,6,9.68,9.68,0,0,0,2.74,2.86,6,6,0,0,0,3.13.81C99.4,47.36,99.5,47.51,99.5,47.82Zm-37-23.1H79.57l-9-18.39Z"/><path class="cls-2" d="M111.63,15.55a13.81,13.81,0,0,0,3.59,3.75c1.42,1,3.39.45,5.91,1.94q4,2.4,6.22,4a14.77,14.77,0,0,1,3.79,4.06,10.85,10.85,0,0,1,1.58,5.95,12.56,12.56,0,0,1-1.78,6.6,12.15,12.15,0,0,1-5.29,4.71A19.26,19.26,0,0,1,117,48.28a21.94,21.94,0,0,1-5.14-.58,25,25,0,0,1-5.37-2,1.15,1.15,0,0,1-.5-.54,4.24,4.24,0,0,1-.19-.93l-1.16-10v-.08c0-.21.13-.32.38-.35s.42.07.47.27a18.08,18.08,0,0,0,4.09,9.27,11.3,11.3,0,0,0,9.12,3.94A10.72,10.72,0,0,0,125.65,45q2.82-2.24,2.82-7a11.22,11.22,0,0,0-1.54-6,15.07,15.07,0,0,0-3.75-4.17,69.14,69.14,0,0,0-6-3.9c-2.47-1.44-4.41-.9-5.83-2a14.67,14.67,0,0,1-3.63-4.06A10.88,10.88,0,0,1,106.22,12a10.91,10.91,0,0,1,2-6.57,12.16,12.16,0,0,1,5.14-4A17.16,17.16,0,0,1,120.13,0a23.27,23.27,0,0,1,8.81,1.85c.77.31,1.15.75,1.15,1.31l.7,8.19c0,.21-.14.31-.43.31s-.45-.1-.5-.31a12.26,12.26,0,0,0-3-7.18Q124.15,1,119.12,1q-4.64,0-6.79,2.7a10,10,0,0,0-2.17,6.49A9.49,9.49,0,0,0,111.63,15.55Z"/><polygon class="cls-2" points="34.34 30.45 33.99 29.74 34.52 29.31 34.98 28.72 34.72 28.12 35.1 27.27 34.97 26.59 34.44 25.56 35.27 24.67 34.96 23.43 35.65 22.36 36.14 21.75 35.91 20.72 35.48 19.94 36.13 19.36 36.73 18.63 36.33 18.18 35.84 17.36 36.55 16.78 37.23 15.61 36.83 15.07 37.25 14.66 37.02 13.88 37.39 13.34 37.22 12.67 37.59 12.25 37.41 11.45 37.79 10.82 37.57 10.49 37.97 9.99 37.72 9.55 71.65 15.04 95.65 18.93 94.92 19.54 95.39 20.52 94.73 21.28 95.16 21.94 94.61 22.93 94.82 24.03 95.46 24.42 94.16 26.13 94.76 27.11 94.09 28.56 92.91 29.21 93.68 31.1 93.05 31.95 93.39 32.84 92.67 33.5 93.09 34.71 92.36 35.72 92.86 37.08 91.82 37.62 91.85 38.69 92.27 39.82 34.34 30.45"/><polygon class="cls-2" points="118.16 4.47 118.36 5.54 119.27 5.68 119.48 6.83 120.88 7.41 121.6 8.96 122.69 9.37 122.97 10.76 124.98 10.65 125.35 12.25 126.02 11.84 126.64 14.35 128.22 14.68 128.36 16.05 129.61 16.86 129.41 18.28 131.02 18.39 131.85 19.29 132.52 20.02 102.47 47.79 101.79 45.99 100.35 45.49 100.14 44.16 99.12 44.17 98.62 42.42 97.25 42.15 96.7 40.59 95.53 40.28 95.65 38.99 94.35 39.01 94.2 38.14 93.42 37.99 93.18 36.58 92.24 36.73 92.19 36 91.06 35.83 90.37 35.04 90.84 34.33 89.96 34.26 89.86 33.3 88.91 33.12 89.05 32.51 88.11 32.25 118.16 4.47"/><polygon class="cls-2" points="31.8 3.05 31.78 3.63 32.17 3.68 31.99 4.28 32.62 4.46 32.99 5.1 32.98 5.95 33.7 6.34 33.75 7.24 34.6 7.89 34.69 8.79 35.7 9.45 35.56 10.81 37.04 10.99 37.03 12.1 38.19 13.08 38.22 14.16 39.15 14.87 39.41 16.22 40.34 17.02 40.45 18.02 41.14 18.43 41.29 19.48 42.39 19.91 42.39 21.38 10.6 39.73 10.68 38.76 9.82 38.37 9.8 37.38 9.14 37.19 9.16 36.55 8.52 36.13 8.44 35.41 7.77 34.83 7.69 34.18 7.13 33.71 7.07 33.05 5.98 32.33 5.59 31.05 5.27 29.67 4.37 28.93 3.02 28.04 3.42 27.29 3.46 26.65 2.72 26.08 2.06 25.49 1.99 24.81 1.89 24.25 1.17 23.89 1.13 23.33 0.58 22.92 0.58 22.38 0.08 22 0.02 21.4 31.8 3.05"/></svg>