<svg xmlns="http://www.w3.org/2000/svg" width="16.866" height="11.385" viewBox="0 0 16.866 11.385">
  <path id="Icon_zocial-email" data-name="Icon zocial-email" d="M.072,14.445V5.076q0-.016.049-.309L5.634,9.484.137,14.77a1.378,1.378,0,0,1-.065-.325ZM.8,4.117a.7.7,0,0,1,.276-.049H15.93a.921.921,0,0,1,.293.049L10.693,8.85l-.732.586L8.513,10.622,7.066,9.435,6.334,8.85ZM.82,15.4l5.546-5.318,2.147,1.74,2.147-1.74L16.206,15.4a.781.781,0,0,1-.276.049H1.08A.737.737,0,0,1,.82,15.4Zm10.572-5.92,5.5-4.717a.971.971,0,0,1,.049.309v9.368a1.247,1.247,0,0,1-.049.325Z" transform="translate(-0.072 -4.068)" fill="#fff"/>
</svg>
