<svg xmlns="http://www.w3.org/2000/svg" width="19.514" height="19.51" viewBox="0 0 19.514 19.51">
  <path id="Icon_awesome-instagram" data-name="Icon awesome-instagram" d="M9.754,6.991a5,5,0,1,0,5,5A4.994,4.994,0,0,0,9.754,6.991Zm0,8.254a3.252,3.252,0,1,1,3.252-3.252,3.258,3.258,0,0,1-3.252,3.252Zm6.373-8.459a1.167,1.167,0,1,1-1.167-1.167A1.164,1.164,0,0,1,16.128,6.786ZM19.441,7.97a5.774,5.774,0,0,0-1.576-4.088,5.812,5.812,0,0,0-4.088-1.576c-1.611-.091-6.439-.091-8.05,0A5.8,5.8,0,0,0,1.639,3.878,5.793,5.793,0,0,0,.063,7.966c-.091,1.611-.091,6.439,0,8.05A5.774,5.774,0,0,0,1.639,20.1a5.819,5.819,0,0,0,4.088,1.576c1.611.091,6.439.091,8.05,0A5.774,5.774,0,0,0,17.865,20.1a5.812,5.812,0,0,0,1.576-4.088c.091-1.611.091-6.434,0-8.045ZM17.36,17.744A3.292,3.292,0,0,1,15.505,19.6c-1.284.509-4.332.392-5.751.392S5.283,20.1,4,19.6a3.292,3.292,0,0,1-1.855-1.855c-.509-1.284-.392-4.332-.392-5.751s-.113-4.471.392-5.751A3.292,3.292,0,0,1,4,4.387C5.287,3.878,8.335,4,9.754,4s4.471-.113,5.751.392A3.292,3.292,0,0,1,17.36,6.242c.509,1.284.392,4.332.392,5.751S17.869,16.464,17.36,17.744Z" transform="translate(0.005 -2.238)" fill="#1b2328"/>
</svg>
